<svg width="54" height="15" viewBox="0 0 54 15" fill="none" xmlns="http://www.w3.org/2000/svg">
<g clip-path="url(#clip0_117_142)">
<path fill-rule="evenodd" clip-rule="evenodd" d="M8.35439 0.841545L13.2948 5.77898C14.0719 6.55599 14.0719 7.81775 13.2948 8.59476L8.35439 13.5598C7.57737 14.336 6.31404 14.336 5.53707 13.5598L0.582755 8.60858C-0.194252 7.83156 -0.194252 6.56976 0.582755 5.79279L5.53707 0.841545C6.31404 0.0645372 7.57737 0.0645372 8.35439 0.841545ZM6.61932 2.08952L6.60555 2.10332L1.85911 6.84669C1.66505 7.04073 1.66505 7.3322 1.8453 7.52628L1.85911 7.5401L6.59174 12.2696C6.78578 12.4637 7.07724 12.4637 7.27209 12.2835L7.28591 12.2696L12.0185 7.5401C12.2126 7.34601 12.2126 7.02692 12.0185 6.83288L7.29972 2.11713C7.11945 1.92307 6.81417 1.92307 6.61932 2.08952ZM7.03584 4.18353L9.9644 7.10976C10.0196 7.16502 10.0196 7.23482 9.9644 7.29003L7.03584 10.2163C6.98063 10.2715 6.91083 10.2715 6.85557 10.2163L3.92704 7.29003C3.87181 7.23482 3.87181 7.16502 3.92704 7.10976L6.85557 4.18353C6.91083 4.1283 6.98063 4.1283 7.03584 4.18353Z" fill="#321E4C"/>
<path d="M48.7678 8.62243C48.7678 7.06916 49.5863 6.15332 50.7797 6.15332C51.7094 6.15332 52.2787 6.7777 52.501 7.60993L53.972 6.80528C53.5693 5.58493 52.4317 4.65527 50.7806 4.65527C48.6013 4.65527 47.0195 6.27833 47.0195 8.6362C47.0195 10.9941 48.5882 12.6171 50.7806 12.6171C52.4456 12.6171 53.6116 11.6461 54.0004 10.3981L52.5019 9.63565C52.2791 10.4817 51.7108 11.0923 50.7806 11.0923C49.5868 11.0785 48.7687 10.1772 48.7687 8.62319L48.7678 8.62243Z" fill="#321E4C"/>
<path d="M20.3034 1.97852L16.334 12.4363H18.1794L19.0677 10.0508H23.5917L24.4937 12.4363H26.3676L22.3981 1.97852H20.3026H20.3034ZM21.3167 4.04492L22.9819 8.41398H19.6928L21.3167 4.04492Z" fill="#321E4C"/>
<path d="M33.2658 10.9527H29.2274L33.2244 6.11187V4.78027H27.0904V6.26451H31.1427L27.0352 11.1191V12.423H33.2666V10.9527H33.2658Z" fill="#321E4C"/>
<path d="M35.0146 10.5089C35.0146 12.0622 35.8055 12.5201 37.2628 12.5201C37.7207 12.5201 38.151 12.4787 38.4701 12.4227V10.9523C38.2063 10.9799 38.0537 10.9937 37.7621 10.9937C37.1378 10.9937 36.7489 10.9247 36.7489 10.2313V6.27872H38.3451V4.79449H36.7489V2.54785H35.0284V4.79449H33.96V6.27872H35.0284V10.5089H35.0146Z" fill="#321E4C"/>
<path d="M42.8688 12.5898C44.3952 12.5898 45.6024 11.7852 46.1442 10.4537L44.6453 9.88526C44.409 10.6761 43.7294 11.1056 42.8688 11.1056C41.7443 11.1056 40.9535 10.301 40.8285 8.99705H46.1856V8.41488C46.1856 6.32085 45.0057 4.64258 42.7852 4.64258C40.5646 4.64258 39.1494 6.37607 39.1494 8.6235C39.1494 10.9814 40.6896 12.5898 42.8688 12.5898ZM42.7852 6.113C43.8951 6.113 44.4228 6.83399 44.4366 7.68003H40.9251C41.1752 6.65376 41.8824 6.113 42.7844 6.113H42.7852Z" fill="#321E4C"/>
</g>
<defs>
<clipPath id="clip0_117_142">
<rect width="54" height="14.4" fill="white"/>
</clipPath>
</defs>
</svg>
