<svg width="31" height="22" viewBox="0 0 31 22" fill="none" xmlns="http://www.w3.org/2000/svg">
<path d="M8.5 15C11.2773 14.6798 12.7045 16.4617 15.5 16.5C18.4867 16.5409 20.0149 14.895 23 15C24.3799 15.0485 25.1205 15.4417 26.5 15.5C27.0843 15.5247 27.997 15.5001 28 15.5C27.9928 15.5249 27.4541 17.3928 26.5 18C25.9791 18.3314 25.569 18.2604 25 18.5C23.2005 19.2578 22.9412 21.2892 21 21.5C19.0961 21.7067 16.5214 19.5183 16.5 19.5C16.4932 19.494 15.934 19 15.5 19C15.066 19 14.5068 19.494 14.5 19.5C14.4786 19.5183 11.9039 21.7067 10 21.5C8.05884 21.2892 7.82709 19.1886 6 18.5C5.2467 18.2161 4.67635 18.4365 4 18C3.05293 17.3886 2.54199 15.5078 2.54199 15.5078C2.54199 15.5078 4.02126 15.9958 5 16C6.4215 16.006 7.08785 15.1628 8.5 15ZM8 16.5C8.0066 16.5419 8.49167 19.5886 10 20C11.5095 20.4115 13.4762 18.029 13.5 18L8 16.5ZM17.5 18C17.5187 18.0227 19.4884 20.4122 21 20C22.5106 19.588 22.9948 16.5328 23 16.5L17.5 18ZM20 1C20.0091 0.990886 21.0047 0.00189896 22 0.5C22.5491 0.774901 22.9951 1.98661 23 2L25.2217 9.55371C28.7455 10.012 31 10.7131 31 11.5C30.9984 12.8805 24.0594 14 15.5 14C6.94055 14 0.00156239 12.8805 0 11.5C0 10.7088 2.27904 10.004 5.83594 9.5459L8.5 2C8.50836 1.97269 8.87115 0.797876 9.5 0.5C10.0259 0.251056 10.9873 0.49673 11 0.5C11 0.5 13.5769 2.5 15.5 2.5C17.4152 2.5 19.9788 1.01231 20 1Z" fill="black"/>
</svg>
